<svg xmlns="http://www.w3.org/2000/svg" version="1.1" xmlns:xlink="http://www.w3.org/1999/xlink" xmlns:svgjs="http://svgjs.dev/svgjs" width="128" height="128" viewBox="0 0 128 128"><g transform="matrix(0.8046875,0,0,0.8046875,12.221578124999994,13.732940361213963)"><svg viewBox="0 0 96 93" data-background-color="#fafafa" preserveAspectRatio="xMidYMid meet" height="124" width="128" xmlns="http://www.w3.org/2000/svg" xmlns:xlink="http://www.w3.org/1999/xlink"><g id="tight-bounds" transform="matrix(1,0,0,1,0.25950000000000273,0.350851702169507)"><svg viewBox="0 0 95.481 92.29829659566097" height="92.29829659566097" width="95.481"><g><svg viewBox="0 0 95.481 92.29829659566097" height="92.29829659566097" width="95.481"><g><svg viewBox="0 0 95.481 92.29829659566097" height="92.29829659566097" width="95.481"><g id="textblocktransform"><svg viewBox="0 0 95.481 92.29829659566097" height="92.29829659566097" width="95.481" id="textblock"><g><svg viewBox="0 0 95.481 92.29829659566097" height="92.29829659566097" width="95.481"><g><svg viewBox="0 0 95.481 92.29829659566097" height="92.29829659566097" width="95.481"><g><svg xmlns="http://www.w3.org/2000/svg" xmlns:xlink="http://www.w3.org/1999/xlink" version="1.1" x="0" y="0" viewBox="1 3 60.00000221304562 58" style="enable-background:new 0 0 64 64;" xml:space="preserve" height="92.29829659566097" width="95.481" class="icon-icon-0" data-fill-palette-color="accent" id="icon-0"></svg></g></svg></g></svg></g></svg></g></svg></g></svg></g><defs></defs><mask id="e7eaf487-52d3-4bc7-88ba-5afdb4831f16"><g id="SvgjsG1611"><svg viewBox="0 0 95.481 92.29829659566097" height="92.29829659566097" width="95.481"><g><svg viewBox="0 0 95.481 92.29829659566097" height="92.29829659566097" width="95.481"><g><svg viewBox="0 0 95.481 92.29829659566097" height="92.29829659566097" width="95.481"><g id="SvgjsG1610"><svg viewBox="0 0 95.481 92.29829659566097" height="92.29829659566097" width="95.481" id="SvgjsSvg1609"><g><svg viewBox="0 0 95.481 92.29829659566097" height="92.29829659566097" width="95.481"><g><svg viewBox="0 0 95.481 92.29829659566097" height="92.29829659566097" width="95.481"><g><svg xmlns="http://www.w3.org/2000/svg" xmlns:xlink="http://www.w3.org/1999/xlink" version="1.1" x="0" y="0" viewBox="1 3 60.00000221304562 58" style="enable-background:new 0 0 64 64;" xml:space="preserve" height="92.29829659566097" width="95.481" class="icon-icon-0" data-fill-palette-color="accent" id="SvgjsSvg1608"><g fill="white"><path d="M31 56A1 1 0 0 1 30 57H4A1 1 0 0 1 4 55H18C19.654 55 21 53.654 21 52V50.95C20.667 50.967 20.338 51 20 51S19.333 50.967 19 50.95V52A1 1 0 0 1 18 53H4C2.346 53 1 54.346 1 56S2.346 59 4 59H30C31.654 59 33 57.654 33 56A1 1 0 0 1 34 55H39V53H34C32.346 53 31 54.346 31 56" fill="white"></path><path d="M6.283 42A17.04 17.04 0 0 0 15.363 48.341C14.115 46.784 13.073 44.611 12.32 42z" fill="white"></path><path d="M20 49C22.088 49 24.265 46.388 25.626 42H14.374C15.735 46.388 17.912 49 20 49" fill="white"></path><path d="M11.817 40C11.358 37.862 11.082 35.504 11.023 33H3.051A16.9 16.9 0 0 0 5.009 40z" fill="white"></path><path d="M24.638 48.341A17.03 17.03 0 0 0 33.718 42H27.681C26.927 44.611 25.885 46.783 24.638 48.341" fill="white"></path><circle cx="34" cy="26" r="1.0" fill="white"></circle><path d="M11.817 24H5.008A16.9 16.9 0 0 0 3.05 31H11.023C11.082 28.496 11.358 26.138 11.817 24" fill="white"></path><path d="M23 24H13.846C13.379 26.058 13.084 28.412 13.023 31H24.026A4.95 4.95 0 0 1 23 28z" fill="white"></path><path d="M13.846 40H26.155C26.622 37.942 26.917 35.588 26.978 33H13.022C13.084 35.588 13.379 37.942 13.846 40" fill="white"></path><path d="M15.362 15.659A17.03 17.03 0 0 0 6.282 22H12.319C13.073 19.389 14.115 17.217 15.362 15.659" fill="white"></path><path d="M23 22V15.29C22.012 15.114 21.01 15 20 15 17.912 15 15.735 17.612 14.374 22z" fill="white"></path><path d="M36.949 33H28.976C28.917 35.504 28.641 37.862 28.182 40H34.991A16.9 16.9 0 0 0 36.949 33" fill="white"></path><polygon points="39,7.618 39,14.382 45.764,11  " fill="white"></polygon><path d="M58 3H28C26.346 3 25 4.346 25 6V19H61V6C61 4.346 59.654 3 58 3M29 17H27V15H29zM31 7H29V13H27V7C27 5.897 27.897 5 29 5H31zM37 17.618V4.382L50.236 11zM59 17H57V15H59zM59 13H57V11H59zM59 9H57V7H59z" fill="white"></path><path d="M25 28C25 29.654 26.346 31 28 31H58C59.654 31 61 29.654 61 28V21H25zM27 25H31.184C31.598 23.839 32.698 23 34 23S36.402 23.839 36.816 25H59V27H36.816C36.402 28.161 35.302 29 34 29S31.598 28.161 31.184 27H27z" fill="white"></path><path d="M51 60.949V61H54C55.868 61 57.564 60.26 58.821 59.062A15 15 0 0 0 57 58.949C53.278 58.949 51 60.244 51 60.949" fill="white"></path><path d="M45 54A1 1 0 0 0 44 53H41V55H44A1 1 0 0 0 45 54" fill="white"></path><path d="M57 51C54.778 51 52.541 50.57 51 49.732V58.235C53.303 56.991 57.154 56.659 60.187 57.265A6.95 6.95 0 0 0 61 54 6.96 6.96 0 0 0 60.165 50.689C59.17 50.891 58.093 51 57 51" fill="white"></path><path d="M41.101 51H44C45.654 51 47 52.346 47 54S45.654 57 44 57H41.101A5.01 5.01 0 0 0 46 61H49V47H46A5.01 5.01 0 0 0 41.101 51" fill="white"></path><path d="M58.773 48.894A6.97 6.97 0 0 0 54 47H51C51 47.705 53.278 49 57 49 57.603 49 58.199 48.964 58.773 48.894" fill="white"></path></g></svg></g></svg></g></svg></g></svg></g></svg></g></svg></g><defs><mask></mask></defs></svg><rect width="95.481" height="92.29829659566097" fill="black" stroke="none" visibility="hidden"></rect></g></mask><linearGradient x1="0.054" x2="0.941" y1="0.5" y2="0.5" id="87d99742-7072-485f-a5af-46dd883299c3"><stop stop-color="#0f3054" offset="0"></stop><stop stop-color="#3b8dcb" offset="0.498"></stop><stop stop-color="#0f3054" offset="1"></stop></linearGradient><rect width="95.481" height="92.29829659566097" fill="url(#87d99742-7072-485f-a5af-46dd883299c3)" mask="url(#e7eaf487-52d3-4bc7-88ba-5afdb4831f16)" data-fill-palette-color="accent"></rect></svg><rect width="95.481" height="92.29829659566097" fill="none" stroke="none" visibility="hidden"></rect></g></svg></g></svg>