<svg xmlns="http://www.w3.org/2000/svg" version="1.1" xmlns:xlink="http://www.w3.org/1999/xlink" xmlns:svgjs="http://svgjs.dev/svgjs" width="2000" height="313" viewBox="0 0 2000 313"><g transform="matrix(1,0,0,1,-1.2121212121212466,-0.24447942076417917)"><svg viewBox="0 0 396 62" data-background-color="#fafafa" preserveAspectRatio="xMidYMid meet" height="313" width="2000" xmlns="http://www.w3.org/2000/svg" xmlns:xlink="http://www.w3.org/1999/xlink"><g id="tight-bounds" transform="matrix(1,0,0,1,0.2400000000000091,0.048427233506004086)"><svg viewBox="0 0 395.52 61.90314553298797" height="61.90314553298797" width="395.52"><g><svg viewBox="0 0 487.47973704179265 76.29583613086771" height="61.90314553298797" width="395.52"><g transform="matrix(1,0,0,1,91.95973704179269,10.544504125177813)"><svg viewBox="0 0 395.52 55.20682788051209" height="55.20682788051209" width="395.52"><g id="textblocktransform"><svg viewBox="0 0 395.52 55.20682788051209" height="55.20682788051209" width="395.52" id="textblock"><g><svg viewBox="0 0 395.52 55.20682788051209" height="55.20682788051209" width="395.52"><g transform="matrix(1,0,0,1,0,0)"><svg width="395.52" viewBox="1.5 -38.7 281.17 39.25" height="55.20682788051209" data-palette-color="url(#fb610f97-634c-4272-8de9-2fe506aab21b)"></svg></g></svg></g></svg></g></svg></g><g><svg viewBox="0 0 78.92672994307291 76.29583613086771" height="76.29583613086771" width="78.92672994307291"><g><svg xmlns="http://www.w3.org/2000/svg" xmlns:xlink="http://www.w3.org/1999/xlink" version="1.1" x="0" y="0" viewBox="1 3 60.00000221304562 58" style="enable-background:new 0 0 64 64;" xml:space="preserve" height="76.29583613086771" width="78.92672994307291" class="icon-icon-0" data-fill-palette-color="accent" id="icon-0"></svg></g></svg></g></svg></g><defs></defs><mask id="5e8cabb2-0ca7-4198-b7b4-ce5734d20da9"><g id="SvgjsG10640"><svg viewBox="0 0 395.52 61.90314553298797" height="61.90314553298797" width="395.52"><g><svg viewBox="0 0 487.47973704179265 76.29583613086771" height="61.90314553298797" width="395.52"><g transform="matrix(1,0,0,1,91.95973704179269,10.544504125177813)"><svg viewBox="0 0 395.52 55.20682788051209" height="55.20682788051209" width="395.52"><g id="SvgjsG10639"><svg viewBox="0 0 395.52 55.20682788051209" height="55.20682788051209" width="395.52" id="SvgjsSvg10638"><g><svg viewBox="0 0 395.52 55.20682788051209" height="55.20682788051209" width="395.52"><g transform="matrix(1,0,0,1,0,0)"><svg width="395.52" viewBox="1.5 -38.7 281.17 39.25" height="55.20682788051209" data-palette-color="url(#fb610f97-634c-4272-8de9-2fe506aab21b)"><path d="M14.65 0.55L14.65 0.55Q9.1 0.55 5.3-4.1 1.5-8.75 1.5-15.5L1.5-15.5Q1.5-23.75 6.08-29.4 10.65-35.05 17.3-35.05L17.3-35.05Q19.9-35.05 22.13-34.52 24.35-34 25.3-33.45L25.3-33.45 26.2-32.9 22.8-25.95Q21.65-26.95 19.55-27.83 17.45-28.7 15.75-28.7L15.75-28.7Q12.3-28.7 10.23-25.85 8.15-23 8.15-17.73 8.15-12.45 10.3-9.08 12.45-5.7 16.15-5.7L16.15-5.7Q18.55-5.7 20.5-7.2 22.45-8.7 23.25-11.2L23.25-11.2 27.4-8.8Q25.75-4.4 22.35-1.93 18.95 0.55 14.65 0.55ZM28.95-10.45Q28.95-16.85 32.4-21.3 35.85-25.75 40.47-25.75 45.1-25.75 47.67-22.75 50.25-19.75 50.25-14.8L50.25-14.8Q50.25-8.2 46.92-3.83 43.6 0.55 38.55 0.55L38.55 0.55Q34.4 0.55 31.67-2.58 28.95-5.7 28.95-10.45L28.95-10.45ZM44.65-12.2L44.65-12.2Q44.65-19.45 39.7-19.45L39.7-19.45Q34.55-19.45 34.55-12.65L34.55-12.65Q34.55-9.1 36-7.1 37.45-5.1 39.82-5.1 42.2-5.1 43.42-6.93 44.65-8.75 44.65-12.2ZM60.55 0L60.55 0Q57.85 0 56.17-1.78 54.5-3.55 54.5-6.45L54.5-6.45 54.8-12.2 54.25-24.2 60.95-25.45 60.3-10.25Q60.3-8.1 61.07-7.1 61.85-6.1 63.55-6.1 65.25-6.1 68.25-7.8L68.25-7.8 68.25-10.8 67.7-23.95 74.45-25.2 73.84-12.7 73.9-8.6Q73.9-5.4 75.55-2.15L75.55-2.15 70.34 0.15Q68.7-3.1 68.34-5.05L68.34-5.05Q63.85 0 60.55 0ZM79.49-24.15L79.49-24.15 85.54-25.45Q85.99-21.6 86.14-18.15L86.14-18.15Q90.69-25.2 94.69-25.2L94.69-25.2 94.14-17.4Q91.24-17.4 89.57-16.88 87.89-16.35 86.14-14.8L86.14-14.8 86.14-13 86.69-1.25 79.99 0 80.59-12.15Q80.39-18.85 79.49-24.15ZM105.39-4.65L105.39-4.65Q107.99-4.65 107.99-6.95L107.99-6.95Q107.99-7.75 106.87-8.45 105.74-9.15 104.12-9.85 102.49-10.55 100.87-11.43 99.24-12.3 98.12-13.85 96.99-15.4 96.99-17.4L96.99-17.4Q96.99-20.75 99.94-23.25 102.89-25.75 106.74-25.75L106.74-25.75Q108.54-25.75 110.27-25.33 111.99-24.9 113.59-24L113.59-24 110.24-17.9Q109.89-18.2 109.34-18.65 108.79-19.1 107.27-19.83 105.74-20.55 104.57-20.55 103.39-20.55 102.77-20.03 102.14-19.5 102.14-18.57 102.14-17.65 103.87-16.73 105.59-15.8 107.64-15.03 109.69-14.25 111.42-12.48 113.14-10.7 113.14-8.25L113.14-8.25Q113.14-4.75 110.27-2.1 107.39 0.55 103.64 0.55L103.64 0.55Q101.24 0.55 99.17-0.5 97.09-1.55 96.19-2.6L96.19-2.6 95.29-3.65 99.24-8.25Q99.54-7.85 100.09-7.25 100.64-6.65 102.27-5.65 103.89-4.65 105.39-4.65ZM126.54-5.1L126.54-5.1Q127.99-5.1 129.59-5.85 131.19-6.6 132.09-7.35L132.09-7.35 132.99-8.1 135.29-5.3Q134.79-4.45 133.74-3.35 132.69-2.25 131.61-1.48 130.54-0.7 128.76-0.08 126.99 0.55 125.09 0.55L125.09 0.55Q121.04 0.55 118.49-2.53 115.94-5.6 115.94-10.45L115.94-10.45Q115.94-16.55 119.49-21.15 123.04-25.75 127.79-25.75L127.79-25.75Q131.44-25.75 133.46-23.7 135.49-21.65 135.49-17.95L135.49-17.95Q135.49-15.75 134.74-12.95L134.74-12.95 133.74-11.9 121.24-10.75Q122.09-5.1 126.54-5.1ZM126.54-20.6L126.54-20.6Q124.34-20.6 122.84-18.82 121.34-17.05 121.09-14.3L121.09-14.3 129.59-15.35Q129.74-16.5 129.74-17.25L129.74-17.25Q129.74-20.6 126.54-20.6ZM151.59 0.55L151.59 0.55Q146.04 0.55 142.24-4.1 138.44-8.75 138.44-15.5L138.44-15.5Q138.44-23.75 143.01-29.4 147.59-35.05 154.24-35.05L154.24-35.05Q156.84-35.05 159.06-34.52 161.29-34 162.24-33.45L162.24-33.45 163.14-32.9 159.74-25.95Q158.59-26.95 156.49-27.83 154.39-28.7 152.69-28.7L152.69-28.7Q149.24-28.7 147.16-25.85 145.09-23 145.09-17.73 145.09-12.45 147.24-9.08 149.39-5.7 153.09-5.7L153.09-5.7Q155.49-5.7 157.44-7.2 159.39-8.7 160.19-11.2L160.19-11.2 164.34-8.8Q162.69-4.4 159.29-1.93 155.89 0.55 151.59 0.55ZM166.83-24.15L166.83-24.15 172.88-25.45Q173.33-21.6 173.48-18.15L173.48-18.15Q178.03-25.2 182.03-25.2L182.03-25.2 181.48-17.4Q178.58-17.4 176.91-16.88 175.23-16.35 173.48-14.8L173.48-14.8 173.48-13 174.03-1.25 167.33 0 167.93-12.15Q167.73-18.85 166.83-24.15ZM190.18 0Q187.23 0 185.36-1.88 183.48-3.75 183.48-6.93 183.48-10.1 186.38-12.43 189.28-14.75 193.43-14.75L193.43-14.75 196.83-14.75 196.83-15.6Q196.83-18.05 195.83-18.95 194.83-19.85 192.08-19.85L192.08-19.85Q190.93-19.85 189.36-19.38 187.78-18.9 185.83-17.9L185.83-17.9 184.38-21.85Q186.53-23.35 189.61-24.55 192.68-25.75 194.68-25.75L194.68-25.75Q202.53-25.75 202.53-18.15L202.53-18.15 202.53-8.35Q202.53-5.55 204.28-2.1L204.28-2.1 198.98 0.15Q197.73-2.25 197.13-4.15L197.13-4.15Q194.38 0 190.18 0L190.18 0ZM192.28-5.1L192.28-5.1Q194.28-5.1 196.83-7.15L196.83-7.15 196.83-10.5Q194.18-11.1 192.53-11.1L192.53-11.1Q189.38-11.1 189.38-8.3L189.38-8.3Q189.38-6.85 190.18-5.98 190.98-5.1 192.28-5.1ZM223.53-38.25L221.98-32.55Q220.13-33 218.63-33 217.13-33 216.45-32.1 215.78-31.2 215.78-28.95L215.78-28.95 215.73-24.2 221.13-24.2 220.58-20.1 215.73-20.1 215.68-13 216.23-1.25 209.48 0 210.08-12.15 209.88-20.1 206.58-20.1 207.13-24.2 209.78-24.2 209.73-28Q209.73-32.45 212.48-35.58 215.23-38.7 219.18-38.7L219.18-38.7Q221.28-38.7 223.53-38.25L223.53-38.25ZM222.83-24.2L225.73-24.2 225.73-29.65 232.48-30.95 231.83-24.2 237.88-24.2 237.33-20.1 231.63-20.1 231.38-9.65Q231.38-7.3 231.83-6.53 232.28-5.75 233.48-5.75 234.68-5.75 236.68-6.3L236.68-6.3 236.98-2.75Q233.68 0 231.18 0 228.68 0 227.08-1.83 225.48-3.65 225.48-6.6L225.48-6.6 225.78-12.2 225.73-20.1 222.28-20.1 222.83-24.2ZM240.12-3.35Q240.12-4.95 241.3-6.18 242.47-7.4 244.12-7.4L244.12-7.4Q247.37-7.4 247.37-4.1L247.37-4.1Q247.37-2.2 246.2-0.95 245.02 0.3 243.45 0.3 241.87 0.3 241-0.73 240.12-1.75 240.12-3.35ZM256.77 0Q253.82 0 251.95-1.88 250.07-3.75 250.07-6.93 250.07-10.1 252.97-12.43 255.87-14.75 260.02-14.75L260.02-14.75 263.42-14.75 263.42-15.6Q263.42-18.05 262.42-18.95 261.42-19.85 258.67-19.85L258.67-19.85Q257.52-19.85 255.95-19.38 254.37-18.9 252.42-17.9L252.42-17.9 250.97-21.85Q253.12-23.35 256.2-24.55 259.27-25.75 261.27-25.75L261.27-25.75Q269.12-25.75 269.12-18.15L269.12-18.15 269.12-8.35Q269.12-5.55 270.87-2.1L270.87-2.1 265.57 0.15Q264.32-2.25 263.72-4.15L263.72-4.15Q260.97 0 256.77 0L256.77 0ZM258.87-5.1L258.87-5.1Q260.87-5.1 263.42-7.15L263.42-7.15 263.42-10.5Q260.77-11.1 259.12-11.1L259.12-11.1Q255.97-11.1 255.97-8.3L255.97-8.3Q255.97-6.85 256.77-5.98 257.57-5.1 258.87-5.1ZM275.22-24.2L281.92-25.45 281.32-13 281.87-1.25 275.17 0 275.77-12.15 275.22-24.2ZM274.87-32.77Q274.87-34.45 276.17-35.77 277.47-37.1 279.17-37.1 280.87-37.1 281.77-36.18 282.67-35.25 282.67-33.4 282.67-31.55 281.39-30.23 280.12-28.9 278.44-28.9 276.77-28.9 275.82-30 274.87-31.1 274.87-32.77Z" opacity="1" transform="matrix(1,0,0,1,0,0)" fill="white" class="wordmark-text-0" id="SvgjsPath10637"></path></svg></g></svg></g></svg></g></svg></g><g><svg viewBox="0 0 78.92672994307291 76.29583613086771" height="76.29583613086771" width="78.92672994307291"><g><svg xmlns="http://www.w3.org/2000/svg" xmlns:xlink="http://www.w3.org/1999/xlink" version="1.1" x="0" y="0" viewBox="1 3 60.00000221304562 58" style="enable-background:new 0 0 64 64;" xml:space="preserve" height="76.29583613086771" width="78.92672994307291" class="icon-icon-0" data-fill-palette-color="accent" id="SvgjsSvg10636"><g fill="black"><path d="M31 56A1 1 0 0 1 30 57H4A1 1 0 0 1 4 55H18C19.654 55 21 53.654 21 52V50.95C20.667 50.967 20.338 51 20 51S19.333 50.967 19 50.95V52A1 1 0 0 1 18 53H4C2.346 53 1 54.346 1 56S2.346 59 4 59H30C31.654 59 33 57.654 33 56A1 1 0 0 1 34 55H39V53H34C32.346 53 31 54.346 31 56" fill="black"></path><path d="M6.283 42A17.04 17.04 0 0 0 15.363 48.341C14.115 46.784 13.073 44.611 12.32 42z" fill="black"></path><path d="M20 49C22.088 49 24.265 46.388 25.626 42H14.374C15.735 46.388 17.912 49 20 49" fill="black"></path><path d="M11.817 40C11.358 37.862 11.082 35.504 11.023 33H3.051A16.9 16.9 0 0 0 5.009 40z" fill="black"></path><path d="M24.638 48.341A17.03 17.03 0 0 0 33.718 42H27.681C26.927 44.611 25.885 46.783 24.638 48.341" fill="black"></path><circle cx="34" cy="26" r="1.0" fill="black"></circle><path d="M11.817 24H5.008A16.9 16.9 0 0 0 3.05 31H11.023C11.082 28.496 11.358 26.138 11.817 24" fill="black"></path><path d="M23 24H13.846C13.379 26.058 13.084 28.412 13.023 31H24.026A4.95 4.95 0 0 1 23 28z" fill="black"></path><path d="M13.846 40H26.155C26.622 37.942 26.917 35.588 26.978 33H13.022C13.084 35.588 13.379 37.942 13.846 40" fill="black"></path><path d="M15.362 15.659A17.03 17.03 0 0 0 6.282 22H12.319C13.073 19.389 14.115 17.217 15.362 15.659" fill="black"></path><path d="M23 22V15.29C22.012 15.114 21.01 15 20 15 17.912 15 15.735 17.612 14.374 22z" fill="black"></path><path d="M36.949 33H28.976C28.917 35.504 28.641 37.862 28.182 40H34.991A16.9 16.9 0 0 0 36.949 33" fill="black"></path><polygon points="39,7.618 39,14.382 45.764,11  " fill="black"></polygon><path d="M58 3H28C26.346 3 25 4.346 25 6V19H61V6C61 4.346 59.654 3 58 3M29 17H27V15H29zM31 7H29V13H27V7C27 5.897 27.897 5 29 5H31zM37 17.618V4.382L50.236 11zM59 17H57V15H59zM59 13H57V11H59zM59 9H57V7H59z" fill="black"></path><path d="M25 28C25 29.654 26.346 31 28 31H58C59.654 31 61 29.654 61 28V21H25zM27 25H31.184C31.598 23.839 32.698 23 34 23S36.402 23.839 36.816 25H59V27H36.816C36.402 28.161 35.302 29 34 29S31.598 28.161 31.184 27H27z" fill="black"></path><path d="M51 60.949V61H54C55.868 61 57.564 60.26 58.821 59.062A15 15 0 0 0 57 58.949C53.278 58.949 51 60.244 51 60.949" fill="black"></path><path d="M45 54A1 1 0 0 0 44 53H41V55H44A1 1 0 0 0 45 54" fill="black"></path><path d="M57 51C54.778 51 52.541 50.57 51 49.732V58.235C53.303 56.991 57.154 56.659 60.187 57.265A6.95 6.95 0 0 0 61 54 6.96 6.96 0 0 0 60.165 50.689C59.17 50.891 58.093 51 57 51" fill="black"></path><path d="M41.101 51H44C45.654 51 47 52.346 47 54S45.654 57 44 57H41.101A5.01 5.01 0 0 0 46 61H49V47H46A5.01 5.01 0 0 0 41.101 51" fill="black"></path><path d="M58.773 48.894A6.97 6.97 0 0 0 54 47H51C51 47.705 53.278 49 57 49 57.603 49 58.199 48.964 58.773 48.894" fill="black"></path></g></svg></g></svg></g></svg></g><defs><mask></mask></defs></svg><rect width="395.52" height="61.90314553298797" fill="black" stroke="none" visibility="hidden"></rect></g></mask><linearGradient x1="0" x2="1" y1="0.5" y2="0.5" id="fb610f97-634c-4272-8de9-2fe506aab21b"><stop stop-color="#f00b51" offset="0"></stop><stop stop-color="#730062" offset="1"></stop></linearGradient><rect width="395.52" height="61.90314553298797" fill="url(#fb610f97-634c-4272-8de9-2fe506aab21b)" mask="url(#5e8cabb2-0ca7-4198-b7b4-ce5734d20da9)" data-fill-palette-color="primary"></rect><mask id="a20adbbb-69e2-4fdb-9b67-b034eb28e2d6"><g id="SvgjsG10659"><svg viewBox="0 0 395.52 61.90314553298797" height="61.90314553298797" width="395.52"><g><svg viewBox="0 0 487.47973704179265 76.29583613086771" height="61.90314553298797" width="395.52"><g transform="matrix(1,0,0,1,91.95973704179269,10.544504125177813)"><svg viewBox="0 0 395.52 55.20682788051209" height="55.20682788051209" width="395.52"><g id="SvgjsG10658"><svg viewBox="0 0 395.52 55.20682788051209" height="55.20682788051209" width="395.52" id="SvgjsSvg10657"><g><svg viewBox="0 0 395.52 55.20682788051209" height="55.20682788051209" width="395.52"><g transform="matrix(1,0,0,1,0,0)"><svg width="395.52" viewBox="1.5 -38.7 281.17 39.25" height="55.20682788051209" data-palette-color="url(#fb610f97-634c-4272-8de9-2fe506aab21b)"></svg></g></svg></g></svg></g></svg></g><g><svg viewBox="0 0 78.92672994307291 76.29583613086771" height="76.29583613086771" width="78.92672994307291"><g><svg xmlns="http://www.w3.org/2000/svg" xmlns:xlink="http://www.w3.org/1999/xlink" version="1.1" x="0" y="0" viewBox="1 3 60.00000221304562 58" style="enable-background:new 0 0 64 64;" xml:space="preserve" height="76.29583613086771" width="78.92672994307291" class="icon-icon-0" data-fill-palette-color="accent" id="SvgjsSvg10656"><g fill="white"><path d="M31 56A1 1 0 0 1 30 57H4A1 1 0 0 1 4 55H18C19.654 55 21 53.654 21 52V50.95C20.667 50.967 20.338 51 20 51S19.333 50.967 19 50.95V52A1 1 0 0 1 18 53H4C2.346 53 1 54.346 1 56S2.346 59 4 59H30C31.654 59 33 57.654 33 56A1 1 0 0 1 34 55H39V53H34C32.346 53 31 54.346 31 56" fill="white"></path><path d="M6.283 42A17.04 17.04 0 0 0 15.363 48.341C14.115 46.784 13.073 44.611 12.32 42z" fill="white"></path><path d="M20 49C22.088 49 24.265 46.388 25.626 42H14.374C15.735 46.388 17.912 49 20 49" fill="white"></path><path d="M11.817 40C11.358 37.862 11.082 35.504 11.023 33H3.051A16.9 16.9 0 0 0 5.009 40z" fill="white"></path><path d="M24.638 48.341A17.03 17.03 0 0 0 33.718 42H27.681C26.927 44.611 25.885 46.783 24.638 48.341" fill="white"></path><circle cx="34" cy="26" r="1.0" fill="white"></circle><path d="M11.817 24H5.008A16.9 16.9 0 0 0 3.05 31H11.023C11.082 28.496 11.358 26.138 11.817 24" fill="white"></path><path d="M23 24H13.846C13.379 26.058 13.084 28.412 13.023 31H24.026A4.95 4.95 0 0 1 23 28z" fill="white"></path><path d="M13.846 40H26.155C26.622 37.942 26.917 35.588 26.978 33H13.022C13.084 35.588 13.379 37.942 13.846 40" fill="white"></path><path d="M15.362 15.659A17.03 17.03 0 0 0 6.282 22H12.319C13.073 19.389 14.115 17.217 15.362 15.659" fill="white"></path><path d="M23 22V15.29C22.012 15.114 21.01 15 20 15 17.912 15 15.735 17.612 14.374 22z" fill="white"></path><path d="M36.949 33H28.976C28.917 35.504 28.641 37.862 28.182 40H34.991A16.9 16.9 0 0 0 36.949 33" fill="white"></path><polygon points="39,7.618 39,14.382 45.764,11  " fill="white"></polygon><path d="M58 3H28C26.346 3 25 4.346 25 6V19H61V6C61 4.346 59.654 3 58 3M29 17H27V15H29zM31 7H29V13H27V7C27 5.897 27.897 5 29 5H31zM37 17.618V4.382L50.236 11zM59 17H57V15H59zM59 13H57V11H59zM59 9H57V7H59z" fill="white"></path><path d="M25 28C25 29.654 26.346 31 28 31H58C59.654 31 61 29.654 61 28V21H25zM27 25H31.184C31.598 23.839 32.698 23 34 23S36.402 23.839 36.816 25H59V27H36.816C36.402 28.161 35.302 29 34 29S31.598 28.161 31.184 27H27z" fill="white"></path><path d="M51 60.949V61H54C55.868 61 57.564 60.26 58.821 59.062A15 15 0 0 0 57 58.949C53.278 58.949 51 60.244 51 60.949" fill="white"></path><path d="M45 54A1 1 0 0 0 44 53H41V55H44A1 1 0 0 0 45 54" fill="white"></path><path d="M57 51C54.778 51 52.541 50.57 51 49.732V58.235C53.303 56.991 57.154 56.659 60.187 57.265A6.95 6.95 0 0 0 61 54 6.96 6.96 0 0 0 60.165 50.689C59.17 50.891 58.093 51 57 51" fill="white"></path><path d="M41.101 51H44C45.654 51 47 52.346 47 54S45.654 57 44 57H41.101A5.01 5.01 0 0 0 46 61H49V47H46A5.01 5.01 0 0 0 41.101 51" fill="white"></path><path d="M58.773 48.894A6.97 6.97 0 0 0 54 47H51C51 47.705 53.278 49 57 49 57.603 49 58.199 48.964 58.773 48.894" fill="white"></path></g></svg></g></svg></g></svg></g><defs><mask></mask></defs><mask><g id="SvgjsG10655"><svg viewBox="0 0 395.52 61.90314553298797" height="61.90314553298797" width="395.52"><g><svg viewBox="0 0 487.47973704179265 76.29583613086771" height="61.90314553298797" width="395.52"><g transform="matrix(1,0,0,1,91.95973704179269,10.544504125177813)"><svg viewBox="0 0 395.52 55.20682788051209" height="55.20682788051209" width="395.52"><g id="SvgjsG10654"><svg viewBox="0 0 395.52 55.20682788051209" height="55.20682788051209" width="395.52" id="SvgjsSvg10653"><g><svg viewBox="0 0 395.52 55.20682788051209" height="55.20682788051209" width="395.52"><g transform="matrix(1,0,0,1,0,0)"><svg width="395.52" viewBox="1.5 -38.7 281.17 39.25" height="55.20682788051209" data-palette-color="url(#fb610f97-634c-4272-8de9-2fe506aab21b)"><path d="M14.65 0.55L14.65 0.55Q9.1 0.55 5.3-4.1 1.5-8.75 1.5-15.5L1.5-15.5Q1.5-23.75 6.08-29.4 10.65-35.05 17.3-35.05L17.3-35.05Q19.9-35.05 22.13-34.52 24.35-34 25.3-33.45L25.3-33.45 26.2-32.9 22.8-25.95Q21.65-26.95 19.55-27.83 17.45-28.7 15.75-28.7L15.75-28.7Q12.3-28.7 10.23-25.85 8.15-23 8.15-17.73 8.15-12.45 10.3-9.08 12.45-5.7 16.15-5.7L16.15-5.7Q18.55-5.7 20.5-7.2 22.45-8.7 23.25-11.2L23.25-11.2 27.4-8.8Q25.75-4.4 22.35-1.93 18.95 0.55 14.65 0.55ZM28.95-10.45Q28.95-16.85 32.4-21.3 35.85-25.75 40.47-25.75 45.1-25.75 47.67-22.75 50.25-19.75 50.25-14.8L50.25-14.8Q50.25-8.2 46.92-3.83 43.6 0.55 38.55 0.55L38.55 0.55Q34.4 0.55 31.67-2.58 28.95-5.7 28.95-10.45L28.95-10.45ZM44.65-12.2L44.65-12.2Q44.65-19.45 39.7-19.45L39.7-19.45Q34.55-19.45 34.55-12.65L34.55-12.65Q34.55-9.1 36-7.1 37.45-5.1 39.82-5.1 42.2-5.1 43.42-6.93 44.65-8.75 44.65-12.2ZM60.55 0L60.55 0Q57.85 0 56.17-1.78 54.5-3.55 54.5-6.45L54.5-6.45 54.8-12.2 54.25-24.2 60.95-25.45 60.3-10.25Q60.3-8.1 61.07-7.1 61.85-6.1 63.55-6.1 65.25-6.1 68.25-7.8L68.25-7.8 68.25-10.8 67.7-23.95 74.45-25.2 73.84-12.7 73.9-8.6Q73.9-5.4 75.55-2.15L75.55-2.15 70.34 0.15Q68.7-3.1 68.34-5.05L68.34-5.05Q63.85 0 60.55 0ZM79.49-24.15L79.49-24.15 85.54-25.45Q85.99-21.6 86.14-18.15L86.14-18.15Q90.69-25.2 94.69-25.2L94.69-25.2 94.14-17.4Q91.24-17.4 89.57-16.88 87.89-16.35 86.14-14.8L86.14-14.8 86.14-13 86.69-1.25 79.99 0 80.59-12.15Q80.39-18.85 79.49-24.15ZM105.39-4.65L105.39-4.65Q107.99-4.65 107.99-6.95L107.99-6.95Q107.99-7.75 106.87-8.45 105.74-9.15 104.12-9.85 102.49-10.55 100.87-11.43 99.24-12.3 98.12-13.85 96.99-15.4 96.99-17.4L96.99-17.4Q96.99-20.75 99.94-23.25 102.89-25.75 106.74-25.75L106.74-25.75Q108.54-25.75 110.27-25.33 111.99-24.9 113.59-24L113.59-24 110.24-17.9Q109.89-18.2 109.34-18.65 108.79-19.1 107.27-19.83 105.74-20.55 104.57-20.55 103.39-20.55 102.77-20.03 102.14-19.5 102.14-18.57 102.14-17.65 103.87-16.73 105.59-15.8 107.64-15.03 109.69-14.25 111.42-12.48 113.14-10.7 113.14-8.25L113.14-8.25Q113.14-4.75 110.27-2.1 107.39 0.55 103.64 0.55L103.64 0.55Q101.24 0.55 99.17-0.5 97.09-1.55 96.19-2.6L96.19-2.6 95.29-3.65 99.24-8.25Q99.54-7.85 100.09-7.25 100.64-6.65 102.27-5.65 103.89-4.65 105.39-4.65ZM126.54-5.1L126.54-5.1Q127.99-5.1 129.59-5.85 131.19-6.6 132.09-7.35L132.09-7.35 132.99-8.1 135.29-5.3Q134.79-4.45 133.74-3.35 132.69-2.25 131.61-1.48 130.54-0.7 128.76-0.08 126.99 0.55 125.09 0.55L125.09 0.55Q121.04 0.55 118.49-2.53 115.94-5.6 115.94-10.45L115.94-10.45Q115.94-16.55 119.49-21.15 123.04-25.75 127.79-25.75L127.79-25.75Q131.44-25.75 133.46-23.7 135.49-21.65 135.49-17.95L135.49-17.95Q135.49-15.75 134.74-12.95L134.74-12.95 133.74-11.9 121.24-10.75Q122.09-5.1 126.54-5.1ZM126.54-20.6L126.54-20.6Q124.34-20.6 122.84-18.82 121.34-17.05 121.09-14.3L121.09-14.3 129.59-15.35Q129.74-16.5 129.74-17.25L129.74-17.25Q129.74-20.6 126.54-20.6ZM151.59 0.55L151.59 0.55Q146.04 0.55 142.24-4.1 138.44-8.75 138.44-15.5L138.44-15.5Q138.44-23.75 143.01-29.4 147.59-35.05 154.24-35.05L154.24-35.05Q156.84-35.05 159.06-34.52 161.29-34 162.24-33.45L162.24-33.45 163.14-32.9 159.74-25.95Q158.59-26.95 156.49-27.83 154.39-28.7 152.69-28.7L152.69-28.7Q149.24-28.7 147.16-25.85 145.09-23 145.09-17.73 145.09-12.45 147.24-9.08 149.39-5.7 153.09-5.7L153.09-5.7Q155.49-5.7 157.44-7.2 159.39-8.7 160.19-11.2L160.19-11.2 164.34-8.8Q162.69-4.4 159.29-1.93 155.89 0.55 151.59 0.55ZM166.83-24.15L166.83-24.15 172.88-25.45Q173.33-21.6 173.48-18.15L173.48-18.15Q178.03-25.2 182.03-25.2L182.03-25.2 181.48-17.4Q178.58-17.4 176.91-16.88 175.23-16.35 173.48-14.8L173.48-14.8 173.48-13 174.03-1.25 167.33 0 167.93-12.15Q167.73-18.85 166.83-24.15ZM190.18 0Q187.23 0 185.36-1.88 183.48-3.75 183.48-6.93 183.48-10.1 186.38-12.43 189.28-14.75 193.43-14.75L193.43-14.75 196.83-14.75 196.83-15.6Q196.83-18.05 195.83-18.95 194.83-19.85 192.08-19.85L192.08-19.85Q190.93-19.85 189.36-19.38 187.78-18.9 185.83-17.9L185.83-17.9 184.38-21.85Q186.53-23.35 189.61-24.55 192.68-25.75 194.68-25.75L194.68-25.75Q202.53-25.75 202.53-18.15L202.53-18.15 202.53-8.35Q202.53-5.55 204.28-2.1L204.28-2.1 198.98 0.15Q197.73-2.25 197.13-4.15L197.13-4.15Q194.38 0 190.18 0L190.18 0ZM192.28-5.1L192.28-5.1Q194.28-5.1 196.83-7.15L196.83-7.15 196.83-10.5Q194.18-11.1 192.53-11.1L192.53-11.1Q189.38-11.1 189.38-8.3L189.38-8.3Q189.38-6.85 190.18-5.98 190.98-5.1 192.28-5.1ZM223.53-38.25L221.98-32.55Q220.13-33 218.63-33 217.13-33 216.45-32.1 215.78-31.2 215.78-28.95L215.78-28.95 215.73-24.2 221.13-24.2 220.58-20.1 215.73-20.1 215.68-13 216.23-1.25 209.48 0 210.08-12.15 209.88-20.1 206.58-20.1 207.13-24.2 209.78-24.2 209.73-28Q209.73-32.45 212.48-35.58 215.23-38.7 219.18-38.7L219.18-38.7Q221.28-38.7 223.53-38.25L223.53-38.25ZM222.83-24.2L225.73-24.2 225.73-29.65 232.48-30.95 231.83-24.2 237.88-24.2 237.33-20.1 231.63-20.1 231.38-9.65Q231.38-7.3 231.83-6.53 232.28-5.75 233.48-5.75 234.68-5.75 236.68-6.3L236.68-6.3 236.98-2.75Q233.68 0 231.18 0 228.68 0 227.08-1.83 225.48-3.65 225.48-6.6L225.48-6.6 225.78-12.2 225.73-20.1 222.28-20.1 222.83-24.2ZM240.12-3.35Q240.12-4.95 241.3-6.18 242.47-7.4 244.12-7.4L244.12-7.4Q247.37-7.4 247.37-4.1L247.37-4.1Q247.37-2.2 246.2-0.95 245.02 0.3 243.45 0.3 241.87 0.3 241-0.73 240.12-1.75 240.12-3.35ZM256.77 0Q253.82 0 251.95-1.88 250.07-3.75 250.07-6.93 250.07-10.1 252.97-12.43 255.87-14.75 260.02-14.75L260.02-14.75 263.42-14.75 263.42-15.6Q263.42-18.05 262.42-18.95 261.42-19.85 258.67-19.85L258.67-19.85Q257.52-19.85 255.95-19.38 254.37-18.9 252.42-17.9L252.42-17.9 250.97-21.85Q253.12-23.35 256.2-24.55 259.27-25.75 261.27-25.75L261.27-25.75Q269.12-25.75 269.12-18.15L269.12-18.15 269.12-8.35Q269.12-5.55 270.87-2.1L270.87-2.1 265.57 0.15Q264.32-2.25 263.72-4.15L263.72-4.15Q260.97 0 256.77 0L256.77 0ZM258.87-5.1L258.87-5.1Q260.87-5.1 263.42-7.15L263.42-7.15 263.42-10.5Q260.77-11.1 259.12-11.1L259.12-11.1Q255.97-11.1 255.97-8.3L255.97-8.3Q255.97-6.85 256.77-5.98 257.57-5.1 258.87-5.1ZM275.22-24.2L281.92-25.45 281.32-13 281.87-1.25 275.17 0 275.77-12.15 275.22-24.2ZM274.87-32.77Q274.87-34.45 276.17-35.77 277.47-37.1 279.17-37.1 280.87-37.1 281.77-36.18 282.67-35.25 282.67-33.4 282.67-31.55 281.39-30.23 280.12-28.9 278.44-28.9 276.77-28.9 275.82-30 274.87-31.1 274.87-32.77Z" opacity="1" transform="matrix(1,0,0,1,0,0)" fill="black" class="wordmark-text-0" id="SvgjsPath10652"></path></svg></g></svg></g></svg></g></svg></g><g><svg viewBox="0 0 78.92672994307291 76.29583613086771" height="76.29583613086771" width="78.92672994307291"><g><svg xmlns="http://www.w3.org/2000/svg" xmlns:xlink="http://www.w3.org/1999/xlink" version="1.1" x="0" y="0" viewBox="1 3 60.00000221304562 58" style="enable-background:new 0 0 64 64;" xml:space="preserve" height="76.29583613086771" width="78.92672994307291" class="icon-icon-0" data-fill-palette-color="accent" id="SvgjsSvg10651"><g fill="black"><path d="M31 56A1 1 0 0 1 30 57H4A1 1 0 0 1 4 55H18C19.654 55 21 53.654 21 52V50.95C20.667 50.967 20.338 51 20 51S19.333 50.967 19 50.95V52A1 1 0 0 1 18 53H4C2.346 53 1 54.346 1 56S2.346 59 4 59H30C31.654 59 33 57.654 33 56A1 1 0 0 1 34 55H39V53H34C32.346 53 31 54.346 31 56" fill="black"></path><path d="M6.283 42A17.04 17.04 0 0 0 15.363 48.341C14.115 46.784 13.073 44.611 12.32 42z" fill="black"></path><path d="M20 49C22.088 49 24.265 46.388 25.626 42H14.374C15.735 46.388 17.912 49 20 49" fill="black"></path><path d="M11.817 40C11.358 37.862 11.082 35.504 11.023 33H3.051A16.9 16.9 0 0 0 5.009 40z" fill="black"></path><path d="M24.638 48.341A17.03 17.03 0 0 0 33.718 42H27.681C26.927 44.611 25.885 46.783 24.638 48.341" fill="black"></path><circle cx="34" cy="26" r="1.0" fill="black"></circle><path d="M11.817 24H5.008A16.9 16.9 0 0 0 3.05 31H11.023C11.082 28.496 11.358 26.138 11.817 24" fill="black"></path><path d="M23 24H13.846C13.379 26.058 13.084 28.412 13.023 31H24.026A4.95 4.95 0 0 1 23 28z" fill="black"></path><path d="M13.846 40H26.155C26.622 37.942 26.917 35.588 26.978 33H13.022C13.084 35.588 13.379 37.942 13.846 40" fill="black"></path><path d="M15.362 15.659A17.03 17.03 0 0 0 6.282 22H12.319C13.073 19.389 14.115 17.217 15.362 15.659" fill="black"></path><path d="M23 22V15.29C22.012 15.114 21.01 15 20 15 17.912 15 15.735 17.612 14.374 22z" fill="black"></path><path d="M36.949 33H28.976C28.917 35.504 28.641 37.862 28.182 40H34.991A16.9 16.9 0 0 0 36.949 33" fill="black"></path><polygon points="39,7.618 39,14.382 45.764,11  " fill="black"></polygon><path d="M58 3H28C26.346 3 25 4.346 25 6V19H61V6C61 4.346 59.654 3 58 3M29 17H27V15H29zM31 7H29V13H27V7C27 5.897 27.897 5 29 5H31zM37 17.618V4.382L50.236 11zM59 17H57V15H59zM59 13H57V11H59zM59 9H57V7H59z" fill="black"></path><path d="M25 28C25 29.654 26.346 31 28 31H58C59.654 31 61 29.654 61 28V21H25zM27 25H31.184C31.598 23.839 32.698 23 34 23S36.402 23.839 36.816 25H59V27H36.816C36.402 28.161 35.302 29 34 29S31.598 28.161 31.184 27H27z" fill="black"></path><path d="M51 60.949V61H54C55.868 61 57.564 60.26 58.821 59.062A15 15 0 0 0 57 58.949C53.278 58.949 51 60.244 51 60.949" fill="black"></path><path d="M45 54A1 1 0 0 0 44 53H41V55H44A1 1 0 0 0 45 54" fill="black"></path><path d="M57 51C54.778 51 52.541 50.57 51 49.732V58.235C53.303 56.991 57.154 56.659 60.187 57.265A6.95 6.95 0 0 0 61 54 6.96 6.96 0 0 0 60.165 50.689C59.17 50.891 58.093 51 57 51" fill="black"></path><path d="M41.101 51H44C45.654 51 47 52.346 47 54S45.654 57 44 57H41.101A5.01 5.01 0 0 0 46 61H49V47H46A5.01 5.01 0 0 0 41.101 51" fill="black"></path><path d="M58.773 48.894A6.97 6.97 0 0 0 54 47H51C51 47.705 53.278 49 57 49 57.603 49 58.199 48.964 58.773 48.894" fill="black"></path></g></svg></g></svg></g></svg></g><defs><mask></mask></defs></svg><rect width="395.52" height="61.90314553298797" fill="black" stroke="none" visibility="hidden"></rect></g></mask></svg><rect width="395.52" height="61.90314553298797" fill="black" stroke="none" visibility="hidden"></rect></g></mask><linearGradient x1="0.054" x2="0.941" y1="0.5" y2="0.5" id="d23457d1-7f1f-4a27-8b6a-b4d98c3e5470"><stop stop-color="#0f3054" offset="0"></stop><stop stop-color="#3b8dcb" offset="0.498"></stop><stop stop-color="#0f3054" offset="1"></stop></linearGradient><rect width="395.52" height="61.90314553298797" fill="url(#d23457d1-7f1f-4a27-8b6a-b4d98c3e5470)" mask="url(#a20adbbb-69e2-4fdb-9b67-b034eb28e2d6)" data-fill-palette-color="accent"></rect></svg><rect width="395.52" height="61.90314553298797" fill="none" stroke="none" visibility="hidden"></rect></g></svg></g></svg>